<svg width="83" height="25" viewBox="0 0 83 25" fill="none" xmlns="http://www.w3.org/2000/svg">
    <path d="M0 15.216L5.64 5.688H0.216V2.184H11.016V5.688L5.496 15.192H11.256V18.696H0V15.216Z" fill="#F4F4F5"/>
    <path d="M17.5444 18.888C16.2004 18.888 15.1524 18.456 14.4004 17.592C13.6484 16.728 13.2724 15.552 13.2724 14.064V6.672H18.3604V13.848C18.3604 14.216 18.4564 14.504 18.6484 14.712C18.8564 14.904 19.1204 15 19.4404 15C19.7604 15 20.0884 14.904 20.4244 14.712L20.6884 18.048C20.3364 18.32 19.8724 18.528 19.2964 18.672C18.7364 18.816 18.1524 18.888 17.5444 18.888ZM15.8164 4.872C15.0644 4.872 14.4244 4.64 13.8964 4.176C13.3844 3.696 13.1284 3.112 13.1284 2.424C13.1284 1.736 13.4004 1.16 13.9444 0.696C14.4884 0.232 15.1124 0 15.8164 0C16.5524 0 17.1844 0.24 17.7124 0.720001C18.2564 1.2 18.5284 1.768 18.5284 2.424C18.5284 3.128 18.2564 3.712 17.7124 4.176C17.1684 4.64 16.5364 4.872 15.8164 4.872Z" fill="#F4F4F5"/>
    <path d="M22.086 6.84H26.91V9.288C27.838 7.432 29.31 6.504 31.326 6.504C32.862 6.504 34.062 7.056 34.926 8.16C35.806 9.248 36.246 10.76 36.246 12.696V18.696H31.206V12.192C31.206 11.504 31.054 10.976 30.75 10.608C30.462 10.24 30.054 10.056 29.526 10.056C29.142 10.056 28.766 10.184 28.398 10.44C28.03 10.68 27.726 11.032 27.486 11.496C27.262 11.96 27.15 12.488 27.15 13.08V18.696H22.086V6.84Z" fill="#F4F4F5"/>
    <path d="M45.3546 24.192C44.4746 24.192 43.6346 24.104 42.8346 23.928L43.2186 20.376C43.8426 20.472 44.4186 20.52 44.9466 20.52C45.9386 20.52 46.6906 20.224 47.2026 19.632C47.7146 19.056 48.0186 18.08 48.1146 16.704C47.1706 18.032 45.7306 18.696 43.7946 18.696C42.7386 18.696 41.7626 18.424 40.8666 17.88C39.9866 17.336 39.2826 16.6 38.7546 15.672C38.2426 14.744 37.9866 13.728 37.9866 12.624C37.9866 11.504 38.2426 10.48 38.7546 9.552C39.2666 8.608 39.9626 7.864 40.8426 7.32C41.7386 6.776 42.7146 6.504 43.7706 6.504C44.7466 6.504 45.5946 6.76 46.3146 7.272C47.0506 7.768 47.5306 8.44 47.7546 9.288V6.504H52.8186V15.648C52.8186 18.448 52.1786 20.568 50.8986 22.008C49.6346 23.464 47.7866 24.192 45.3546 24.192ZM45.3546 15.096C45.9946 15.096 46.5466 14.872 47.0106 14.424C47.4746 13.96 47.7226 13.416 47.7546 12.792V12.6C47.7226 11.992 47.4666 11.456 46.9866 10.992C46.5226 10.528 45.9786 10.296 45.3546 10.296C44.6986 10.296 44.1386 10.536 43.6746 11.016C43.2106 11.48 42.9786 12.04 42.9786 12.696C42.9786 13.352 43.2106 13.92 43.6746 14.4C44.1386 14.864 44.6986 15.096 45.3546 15.096Z" fill="#F4F4F5"/>
    <path d="M61.4661 18.888C60.1381 18.888 58.9541 18.624 57.9141 18.096C56.8901 17.552 56.0901 16.816 55.5141 15.888C54.9381 14.944 54.6501 13.88 54.6501 12.696C54.6501 11.48 54.9461 10.4 55.5381 9.456C56.1301 8.512 56.9301 7.784 57.9381 7.272C58.9461 6.76 60.0661 6.504 61.2981 6.504C62.4821 6.504 63.4901 6.768 64.3221 7.296C65.1701 7.808 65.8021 8.512 66.2181 9.408C66.6341 10.288 66.8421 11.28 66.8421 12.384C66.8421 12.672 66.8261 12.88 66.7941 13.008L59.5941 13.944C59.7861 14.504 60.0981 14.912 60.5301 15.168C60.9621 15.408 61.5301 15.528 62.2341 15.528C63.3221 15.528 64.4981 15.248 65.7621 14.688L66.3621 17.904C64.8741 18.56 63.2421 18.888 61.4661 18.888ZM63.1221 10.92C62.8661 9.912 62.2581 9.408 61.2981 9.408C60.7221 9.408 60.2661 9.624 59.9301 10.056C59.5941 10.488 59.4181 11.048 59.4021 11.736L63.1221 10.92Z" fill="#F4F4F5"/>
    <path d="M68.586 6.84H73.41V9.288C74.338 7.432 75.81 6.504 77.826 6.504C79.362 6.504 80.562 7.056 81.426 8.16C82.306 9.248 82.746 10.76 82.746 12.696V18.696H77.706V12.192C77.706 11.504 77.554 10.976 77.25 10.608C76.962 10.24 76.554 10.056 76.026 10.056C75.642 10.056 75.266 10.184 74.898 10.44C74.53 10.68 74.226 11.032 73.986 11.496C73.762 11.96 73.65 12.488 73.65 13.08V18.696H68.586V6.84Z" fill="#F4F4F5"/>
    </svg>
    